<?xml version="1.0" encoding="UTF-8"?>
<svg width="1000px" height="1000px" viewBox="0 0 1000 1000" version="1.1" xmlns="http://www.w3.org/2000/svg" xmlns:xlink="http://www.w3.org/1999/xlink">
    <!-- Generator: Sketch 47.1 (45422) - http://www.bohemiancoding.com/sketch -->
    <title>ddn svg copy 2</title>
    <desc>Created with Sketch.</desc>
    <defs></defs>
    <g id="Page-1" stroke="none" stroke-width="1" fill="none" fill-rule="evenodd">
        <g id="ddn-svg-copy-2" fill-rule="nonzero">
            <circle id="Oval-2-Copy" fill="#FFFFFF" cx="501" cy="501" r="471"></circle>
            <circle id="Oval-2" fill="#044A84" cx="501" cy="501" r="361"></circle>
            <g id="Group" transform="translate(360.000000, 288.597120)" fill="#FFFFFF">
                <path d="M2.5,0.402877698 L159,0.402877698 C194,0.402877698 221,2.9028777 239.5,8.4028777 C264.5,15.9028777 285.5,28.9028777 303.5,47.4028777 C321,65.9028775 334.5,88.9028775 344,115.902878 C353,142.902877 358,176.402877 358,215.902878 C358,250.902878 353.5,280.902878 345,305.902878 C334.5,336.902878 319.5,361.902878 299.5,380.902877 C284.5,395.402877 264.5,406.402877 239.5,414.902877 C220.5,420.902877 195.5,423.902877 164,423.902877 L2.5,423.902877 L2.5,0.402877698 Z M88,71.9028775 L88,352.402878 L152,352.402878 C176,352.402878 193,350.902878 203.5,348.402878 C217.5,344.902878 229,338.902878 238,330.902878 C247,322.402878 254.5,308.902878 260.5,289.902878 C266.5,270.902878 269,244.902878 269,212.402878 C269,179.902878 266,154.402878 260.5,136.902878 C254.5,119.402878 246.5,105.902878 236,95.9028775 C225.5,85.9028775 212.5,79.4028775 196.5,75.9028775 C184.5,73.4028775 161,71.9028775 126.5,71.9028775 L88,71.9028775 Z" id="Shape"></path>
            </g>
            <path d="M500,1000 C224,1000 0,776 0,500 C0,224 224,0 500,0 C776,0 1000,224 1000,500 C1000,776 776,1000 500,1000 Z M503,952.5 C754.5,952.5 958.5,748.5 958.5,497 C958.5,245.5 754.5,41.5 503,41.5 C251.5,41.5 47.5,245.5 47.5,497 C47.5,748.5 251.5,952.5 503,952.5 Z" id="Combined-Shape-Copy-3" fill="#044A84"></path>
            <rect id="Rectangle-9" fill="#FFFFFF" x="290" y="289" width="83" height="59"></rect>
            <rect id="Rectangle-9-Copy" fill="#FFFFFF" x="290" y="653.5" width="83" height="59"></rect>
            <rect id="Rectangle-9-Copy-2" fill="#FFFFFF" x="402.5" y="207" width="53.5" height="100.5"></rect>
            <rect id="Rectangle-9-Copy-3" fill="#FFFFFF" x="497" y="207" width="53.5" height="100.5"></rect>
            <rect id="Rectangle-9-Copy-4" fill="#FFFFFF" x="497" y="710" width="53.5" height="100.5"></rect>
            <rect id="Rectangle-9-Copy-5" fill="#FFFFFF" x="402.5" y="710" width="53.5" height="100.5"></rect>
            <path d="M338,653.5 C336.5,657 335.5,661 335.5,665.5 C335.5,682 348.5,695 365,695 C381.5,695 394.5,682 394.5,665.5 C394.5,649 381.5,636 365,636 C364,636 363.5,636 362.5,636 C358,645.5 349,652.5 338,653.5 Z" id="Combined-Shape" fill="#FFFFFF"></path>
            <path d="M340,348 C338.5,344.5 337.5,340.5 337.5,336 C337.5,319.5 350.5,306.5 367,306.5 C383.5,306.5 396.5,319.5 396.5,336 C396.5,352.5 383.5,365.5 367,365.5 C366,365.5 365.5,365.5 364.5,365.5 C360,356 351,349 340,348 Z" id="Combined-Shape-Copy-4" fill="#FFFFFF"></path>
        </g>
    </g>
</svg>